<svg xmlns="http://www.w3.org/2000/svg" width="200" height="200" viewBox="0 0 200 200" style="background:#fff">
  <g fill="none" fill-rule="evenodd">
    <rect width="200" height="200" fill="#FFF"/>
    <g transform="translate(25 25)">
      <path fill="#02264D" d="M0,47 C0,54.7319865 6.49187113,61 14.5,61 C22.5081289,61 29,54.7319865 29,47 C28.9906547,39.2717541 22.5042547,33.0090231 14.5,33 C6.49187113,33 0,39.2680135 0,47 Z"/>
      <circle cx="14.5" cy="46.5" r="8.5" fill="#FFF"/>
      <rect width="17" height="6" x="15" y="41" fill="#FFF"/>
      <polygon fill="#02264D" points="13 45 28.733 45 29 45.6 27.794 51 13 51"/>
      <path fill="#02264D" fill-rule="nonzero" d="M18.799,0 L18.8,10.9525369 L30,10.952 L30,28 L2,28 L2,4.54747351e-13 L18.799,0 Z M13.7596096,5.38461538 L7.6,5.38461538 L7.6,22.6153846 L24.1299291,22.6153846 L24.1299291,16.6955843 L13.7596096,16.6955843 L13.7596096,5.38461538 Z"/>
      <g transform="translate(33 33)">
        <path fill="#02264D" d="M14.4658289,-6.86993318e-14 C8.61547178,-0.000440438258 3.34092487,3.4018676 1.10177403,8.62038619 C-1.13737681,13.8389048 0.0998470563,19.8458983 4.23651298,23.8402319 C8.37317891,27.8345656 14.5946114,29.029595 19.9996803,26.8680632 C25.4047492,24.7065314 28.9289795,19.6141308 28.9289795,13.9655101 C28.9196585,6.25672773 22.4499243,0.0096007126 14.4658289,-6.86993318e-14 L14.4658289,-6.86993318e-14 Z"/>
        <path fill="#FFF" d="M14.4657482,22.5599999 C10.8654889,22.5604406 7.61948059,20.4668201 6.24140474,17.2554375 C4.86332888,14.0440549 5.62459018,10.3473748 8.17019657,7.88923632 C10.715803,5.43109786 14.5444109,4.69561829 17.8706605,6.02576711 C21.19691,7.35591593 23.3657142,10.4897274 23.3657142,13.9658398 C23.358259,18.7088534 19.3781542,22.5522004 14.4657482,22.5599999 L14.4657482,22.5599999 Z"/>
      </g>
      <g transform="translate(33)">
        <path fill="#02264D" d="M14.4658289,-6.86993318e-14 C8.61547178,-0.000440438258 3.34092487,3.4018676 1.10177403,8.62038619 C-1.13737681,13.8389048 0.0998470563,19.8458983 4.23651298,23.8402319 C8.37317891,27.8345656 14.5946114,29.029595 19.9996803,26.8680632 C25.4047492,24.7065314 28.9289795,19.6141308 28.9289795,13.9655101 C28.9196585,6.25672773 22.4499243,0.0096007126 14.4658289,-6.86993318e-14 L14.4658289,-6.86993318e-14 Z"/>
        <path fill="#FFF" d="M14.4657482,22.5599999 C10.8654889,22.5604406 7.61948059,20.4668201 6.24140474,17.2554375 C4.86332888,14.0440549 5.62459018,10.3473748 8.17019657,7.88923632 C10.715803,5.43109786 14.5444109,4.69561829 17.8706605,6.02576711 C21.19691,7.35591593 23.3657142,10.4897274 23.3657142,13.9658398 C23.358259,18.7088534 19.3781542,22.5522004 14.4657482,22.5599999 L14.4657482,22.5599999 Z"/>
      </g>
    </g>
    <rect width="166" height="78" x="17" y="104" stroke="#02264D" stroke-width="7" rx="39"/>
    <path fill="#02264D" d="M142,114 C125.989583,114 113,126.989583 113,143 C113,159.010417 125.989583,172 142,172 C158.010417,172 171,159.010417 171,143 C171,126.989583 158.010417,114 142,114 Z"/>
    <path fill="#84BD00" d="M29,0 C12.9895833,0 0,12.9895833 0,29 C0,45.0104167 12.9895833,58 29,58 C45.0104167,58 58,45.0104167 58,29 C58,12.9895833 45.0104167,0 29,0 Z" transform="translate(113 27)"/>
    <path fill="#FFF" fill-rule="nonzero" d="M155.546338,43.0088171 C154.932763,43.0615338 154.381824,43.3489613 153.97603,43.8258487 L153.955458,43.8527077 L136.410837,62.1023599 L131.048906,56.5051425 L131.153085,56.6392816 C130.697782,56.0056438 130.011962,55.6475155 129.24627,55.6475155 L129.039538,55.6563327 C128.494138,55.7031919 127.998228,55.9355017 127.609757,56.3214809 L127.468975,56.4722729 L126.630672,57.2767423 L126.536417,57.4079152 C126.184147,57.898164 126,58.4754831 126,59.0854037 C126,59.7618216 126.227656,60.3964401 126.694407,60.8830092 L134.659231,69.1973709 C135.136317,69.6984327 135.751253,70 136.442557,70 C137.133441,70 137.746283,69.699198 138.227292,69.1958996 L158.306441,48.234609 C158.772344,47.7489245 159,47.1143061 159,46.4378882 C159,45.8275809 158.814967,45.2503343 158.462922,44.7603997 L158.368667,44.6292267 L157.659886,43.9917661 C157.204583,43.3581283 156.518763,43 155.75307,43 L155.546338,43.0088171 Z"/>
    <line x1="68" x2="106" y1="126.5" y2="126.5" stroke="#41B6E6" stroke-linecap="round" stroke-linejoin="round" stroke-width="7.629" opacity=".347"/>
    <line x1="60" x2="98" y1="142.5" y2="142.5" stroke="#41B6E6" stroke-linecap="round" stroke-linejoin="round" stroke-width="7.629" opacity=".347"/>
    <line x1="68" x2="106" y1="158.5" y2="158.5" stroke="#41B6E6" stroke-linecap="round" stroke-linejoin="round" stroke-width="7.629" opacity=".347"/>
  </g>
</svg>
